<svg id="Ebene_1" data-name="Ebene 1" xmlns="http://www.w3.org/2000/svg" viewBox="0 0 260.73 162.04"><defs><style>.cls-1{fill:#dbded7;}</style></defs><path class="cls-1" d="M130.63,162l-5.77-4.28c-.19-.14-20.32-14.52-50.08-14.52-3,0-6.12.15-9.17.45l-4.56.43L46.73,129.81c-6.77-.57-22.43-3.1-33.8-14.27C4.35,107.11,0,95.82,0,82v-.7C0,61.66,9.26,46.35,26.07,38.17a64.61,64.61,0,0,1,20.55-5.83L61.05,17.91l4.57.44c3,.3,6.12.45,9.16.45,29.66,0,49.87-14.36,50.07-14.51L130.61,0l5.79,4.27c.18.13,19.79,14,49.31,14,3.11,0,6.28-.15,9.41-.46l4.56-.44,14.44,14.43a64.57,64.57,0,0,1,20.54,5.83c16.81,8.18,26.07,23.49,26.07,43.13v.54c0,19.64-9.26,34.95-26.07,43.13a64.64,64.64,0,0,1-20.54,5.83l-14.44,14.42-4.56-.43c-3.14-.31-6.31-.46-9.42-.46-29.51,0-49.1,13.85-49.29,14Zm-55.85-21.8c30.94,0,51.66,14.95,51.86,15.1l4,3,4-3c.21-.16,20.41-14.57,51.07-14.57,3.21,0,6.48.16,9.71.47l3.15.3,14.19-14.17.53-.06a61.61,61.61,0,0,0,20.07-5.6c15.72-7.64,24.38-22,24.38-40.43v-.54c0-18.43-8.66-32.78-24.38-40.43a61.61,61.61,0,0,0-20.07-5.6l-.53-.06L198.56,20.49l-3.15.3c-3.23.31-6.49.47-9.7.47-30.63,0-50.88-14.43-51.08-14.57l-4-3-4,3c-.22.16-21.13,15.09-51.85,15.09-3.14,0-6.32-.15-9.45-.46L62.17,21,48,35.21l-.53.06a61.5,61.5,0,0,0-20.06,5.6C11.66,48.51,3,62.87,3,81.29V82c0,13,4.05,23.57,12,31.41,11,10.8,26.36,13,32.47,13.47l.56,0L62.17,141l3.15-.3C68.47,140.4,71.65,140.24,74.78,140.24Z"/><path class="cls-1" d="M113.29,83.13c-2.58,3-1.57,7.29,1.91,9.42A15.5,15.5,0,0,0,118.56,94c2.35.78,3.59,2.24,3.36,4.48-2,.11-4.14.56-5.38-1.79-.11-.34-.89-.45-1.23-.34a2.36,2.36,0,0,1-2.8-1.35c-1.23-2.46-2.58-4.7-4.93-6.16a2.2,2.2,0,0,1-.56-1.57,6.05,6.05,0,0,1,.44-1.79,8,8,0,0,0-2.24-8.74,12.17,12.17,0,0,1-3.58-6.5c-.12-.68-.23-1.24-.34-2-1.46.78-2.46,3-4.48,1.23-.23-.22-.23-.67-.45-1.12a8.78,8.78,0,0,1-1.57-.56c-.67-.34-1.34-.78-.67-1.68.11-.11-.11-.56-.34-.78-.56-.79-1.12-1.69-1.68-2.58.56-.11.9-.11,1.68-.23-1-.67-1.68-1.23-2.46-1.68A13,13,0,0,0,92,58.7c.78.34,1.57.56,2.35.9,0-1.68-1.34-2-2.46-2.8A7.71,7.71,0,0,0,93.12,56c-.78-1.23-1.57-2.35-2.69-4,.22-1.12.56-2.8,1-4.6h.9l-1.46-1.12c4.14-1.34,9.19,2.13,9.19,6.28a37.14,37.14,0,0,1-.9,6.05c-.11.79-.45,1.57-.56,2.35-.34,2.36.67,3.7,3.25,4.26,1.79-4.37,5.38-6.72,9.42-8.63a15.75,15.75,0,0,1,2.46-.78c4-.9,6.73-3.59,7.29-7.4-1.91,1.35-5.94.56-7.74-1.34,1.24-.23,2.58-.56,3.81-.79a1.33,1.33,0,0,1,.12-.67c-2-.11-4.26.11-4.49-2.35a5.72,5.72,0,0,1,1.57-1.35,11.25,11.25,0,0,1,1.68-.33c-.78-.9-1.79-2-2.69-3.14l.34-.34,2.69,2,.33-.34c-1-.78-2.46-1.45-1.79-2.91.45-1,1.46-1.12,2.47-.9.11,1-2.36,1-1.12,2.36a1.66,1.66,0,0,0,1.57.33,2.08,2.08,0,0,0,.78-1.79,18.15,18.15,0,0,0,2.24-.79c.45-.22,1.23-.56.56-1.45-.11-.11,0-.56.11-.56,1.12-.12,1.12-1.8,2.58-1.57.56,0,1.68-1.23,1.79-1.91.12-1.45,1-1.79,2-2,1.57-.34,2.69-.79,2.69-2.69,0-.56.56-1,.9-1.57.56.67.89,1.45,1.46,1.68s1.12-.45,1.68-.79c1,1.12,1.57-.56,2.57-1.79a17.07,17.07,0,0,0-.11,2.13.11.11,0,0,1,.11.11c.23-.67.56-1.23.9-2a6,6,0,0,0,.45,1.35,1.6,1.6,0,0,0,.67-.22c.11,1.56.67,3.25-1.9,4.14,1.9,1.35,3.47,2.58,5.15,3.59s2.13,1.9,1.57,3.81c-.34,1.12-2.47,1.9-3.59,1.23a7.44,7.44,0,0,0-5.38-.33,1.84,1.84,0,0,0-.78,1.34,6.56,6.56,0,0,0,3.14,5.38,7.21,7.21,0,0,1,3.92,4.71c4.82-3,4.82-3,6.5,1.68,2.8-.45,3.59,0,4.82,2.58.56,1,1.34,1.9,1.79,2.91a25.42,25.42,0,0,1,1.46,5.83c.11,1.57-1.12,2.8-2,2.57-1.12-.22-2-2.35-1.45-3.81.67-1.68-.68-2.69-.9-4.14-.11-.68-.9-1.24-1.57-1.8a1.91,1.91,0,0,0-1.23-.33,3.05,3.05,0,0,0-.68,1.34,22.08,22.08,0,0,0-.11,2.69,2.48,2.48,0,0,0,0,.9c.34,2.46.23,2.91-1.79,4.37-2.69-1.68-3-3.59-.9-5.49-.22-.67-.45-1.23-.67-2.13a18.38,18.38,0,0,1-1.9,1.34,13.28,13.28,0,0,1-2.13.34c-.34.11-.79.11-1,.34a25,25,0,0,0-1.57,2C134,66.55,128.65,71,121.25,72c-.67,1.46-1.23,2.69-1.68,3.92a24.89,24.89,0,0,0-1.68,5.38c-.34,3,1.23,5.27,4.37,6.5a4.44,4.44,0,0,1,3,3.92c.12,1.46.34,2.92.45,4.49a6,6,0,0,1-4.14-2.47c-.12-.11-.34-.45-.23-.56,1.68-2.13-.89-2.8-1.57-3.81s-2.46-1.57-3.92-2c-1.68-.56-2.35-1.23-2.24-3C113.4,84.26,113.29,83.81,113.29,83.13Z"/><path class="cls-1" d="M68.53,101.33H68c0-7.26,9.71-8.49,14.51-5a6.34,6.34,0,0,1,2.34,7.7c-1.12,2.68-4.24,3.46-6.81,3.69a6.61,6.61,0,0,0,2.12.44,12.07,12.07,0,0,1,2.12.78,8.34,8.34,0,0,1,2.9,2.35,8.87,8.87,0,0,1,.67,8.36c-1.56,3.58-5.46,5-9,5-3.12.11-6.58-.56-8-3.57a28.73,28.73,0,0,1-.89-3c-.11-.56-.45-1.45-1.23-1.11-1.12.55-.78,2.79-.78,3.79h-.56c0-2.57.22-5.36,3.35-5.58a4.09,4.09,0,0,1,4,2.12c.78,1.45.44,3,.78,4.58a2.89,2.89,0,0,0,4.24,2c1.89-.89,2-3.23,2.12-4.9.11-2.79.44-6.25-.78-8.71-1-2-3.24-2.56-5.36-2a6,6,0,0,0-4,4.69h-.55A6.44,6.44,0,0,1,73,107.8v-.11a4.56,4.56,0,0,1-3.35-3.13,2.7,2.7,0,0,1,2.24-3.35,2.36,2.36,0,0,1,2.67,2.68,2,2,0,0,1-1.22,1.56c-.45.23-1.34.34-1,1.12.45,1.23,3.24,1,4.13.78C77.9,107,78.57,106,79,104.56c.78-2.79.22-7.36-2.79-8.59C72.43,94.3,68.64,97.53,68.53,101.33Z"/><path class="cls-1" d="M86.46,104.8l-.22-.33,4.53-3.87c1.43,1.11,2.43,2.21,2.54,4.09v7.72c0,.56-.11,1.44.22,1.88.55.55,2-.22,2.2-.77a5.78,5.78,0,0,0,0-2v-6.84c-.11-.56-.88-1.11-.88-1.11a4.7,4.7,0,0,0,3.2-3.09,7.31,7.31,0,0,0,4,3.09v.33c-1.22,0-1.55.56-1.66,1.77v2.87c0,1.1-.66,5.63,1,5.74a1.48,1.48,0,0,0,1-.55l.22.33-4.2,3.86c-1.65-.88-2.65-1.65-2.87-3.31l-5.18,3.31A11.81,11.81,0,0,0,88,115.62c-.44-.34-1.44-1.22-1.44-1.22,1.44,0,1.66-.77,1.66-2V106C88.67,104.58,87.79,103.69,86.46,104.8Z"/><path class="cls-1" d="M109.19,104.41l4.24-3.79c2,1,3,2.23,3,3.9l5.24-3.9a8.09,8.09,0,0,0,3.79,3.12v.34c-1.12,0-1.67.56-1.67,1.56v7.58a2.09,2.09,0,0,0,.22.78.74.74,0,0,0,.78.45,2.9,2.9,0,0,0,1.23-.56l.22.33-4.68,3.91a5.6,5.6,0,0,1-2-2,5,5,0,0,1-.56-2.23v-8.58c0-.9-.22-1.34-.78-1.34a.66.66,0,0,0-.44.11c-.12.11-.34.22-.67.44s-.45.34-.56.45v8.7a.82.82,0,0,0,.89.89V115a3.74,3.74,0,0,0-1.89,1.12,6.26,6.26,0,0,0-1.34,2,8.26,8.26,0,0,0-1.9-2,4.83,4.83,0,0,0-1.78-1v-.45h.33c.56,0,.9-.56.9-1.67v-8c0-.67-.23-1-.78-1a.84.84,0,0,0-.45.11c-.11.11-.34.11-.45.22a1.72,1.72,0,0,1-.44.34,1.45,1.45,0,0,0-.45.33v8.7c0,.67.34.89.89.89V115a5,5,0,0,0-3.23,3.13,10.34,10.34,0,0,0-1.78-1.9,4.66,4.66,0,0,0-2.23-1.11v-.45a1,1,0,0,1,.55.11,1.19,1.19,0,0,0,.9-.44c.22-.23.22-.67.22-1.45v-7.14c0-1-.34-1.45-1-1.45a1.18,1.18,0,0,0-1,.56l-.22-.45,4.24-3.79a8.15,8.15,0,0,1,2.11,1.56A4.07,4.07,0,0,1,109.19,104.41Z"/><path class="cls-1" d="M169.18,111.09a10.34,10.34,0,0,1-3.37,1.57c-.79-.11-1.23-.79-1.23-2.24v-9.77a4.39,4.39,0,0,0-1.91-3.7,41.68,41.68,0,0,0,6.06-.67v-.79a3.53,3.53,0,0,1-1.24.34c-1-.12-1.57-.9-1.57-2.14V91a15.35,15.35,0,0,0-.56-4.38,6.37,6.37,0,0,0-2.24-3,8.85,8.85,0,0,0-5.28-1.45c-4,0-6.28,2-6.62,6.17h-.11a7.38,7.38,0,0,0-3.59-4.72,12,12,0,0,0-6-1.45,12.31,12.31,0,0,0-5.27,1.12,9.87,9.87,0,0,0-4,3.36,9.36,9.36,0,0,0-1.57,5.17c.11,1.23.33,2.24.45,3a5.16,5.16,0,0,0,1.57,2.47,18.08,18.08,0,0,0,2.91,2.24c1,.56,1.46,1.23,1.46,1.91a1.76,1.76,0,0,1-1.23,1.46,9.5,9.5,0,0,1-3.48.56v.78c1.91,0,3.48-.33,4.26-1.12a7.46,7.46,0,0,0,2.92-2.69,6.62,6.62,0,0,0,1-3.48,6.26,6.26,0,0,0-1.79-4.6,7.16,7.16,0,0,0-2-1.57,12.65,12.65,0,0,1-2.47-1.91,2.53,2.53,0,0,1-.9-1.8,2.66,2.66,0,0,1,.56-1.57,3.85,3.85,0,0,1,1.24-1.12,2.76,2.76,0,0,1,1.57-.45,4.53,4.53,0,0,1,2.58.9,5.56,5.56,0,0,1,1.79,2.36,27.89,27.89,0,0,1,1.46,7,93.25,93.25,0,0,1,.56,10,39.07,39.07,0,0,1-.78,9.43,3.48,3.48,0,0,1-1.46,2,4.61,4.61,0,0,1-2.47.78,3.43,3.43,0,0,1-2.13-.67,2.14,2.14,0,0,1-.9-1.68,1.07,1.07,0,0,1,.9-.9,14.19,14.19,0,0,0,1.79-.45,2.45,2.45,0,0,0,1.46-1.35,4.28,4.28,0,0,0,.34-1.57,3.92,3.92,0,0,0-.9-2.69,3.87,3.87,0,0,0-3.14-1.24,4.42,4.42,0,0,0-3,1.13,3.83,3.83,0,0,0-1.35,3.25,11.86,11.86,0,0,1,.34,2,6.07,6.07,0,0,0,2.58,3.82,7.88,7.88,0,0,0,4.49,1.34,10.41,10.41,0,0,0,7.18-2.69,16.53,16.53,0,0,0,4.6-7.07,25.49,25.49,0,0,0,1.68-9.31h.9a2,2,0,0,1,2,1,6.06,6.06,0,0,1,.45,2.69v8.08a8.94,8.94,0,0,0,1,4.49,9.11,9.11,0,0,0,3.82,3l9-5.84Zm-16.5-13.47-.22-8.08a8.72,8.72,0,0,1,.67-4,2.18,2.18,0,0,1,1.8-1.23,1.68,1.68,0,0,1,1.23.45,2.24,2.24,0,0,1,.67,1.12,23.28,23.28,0,0,1,.23,2.47,12.82,12.82,0,0,0,.56,3.25,6.4,6.4,0,0,0,1.79,2.58,8.56,8.56,0,0,0,3.93,1.8v.11Z"/><path class="cls-1" d="M169.94,103.37a29.58,29.58,0,0,0,3.25-.23,18.82,18.82,0,0,0,3.25-.78,8,8,0,0,0,2.79-1.79,6.93,6.93,0,0,1,2.69,2.8c.67,1.45.67,5.6.67,5.6a36.84,36.84,0,0,1-.22,4.36,3.16,3.16,0,0,1-1,1.68,6,6,0,0,1-2.69,1,3.9,3.9,0,0,0-1.79.9,5.53,5.53,0,0,0-1.45,1.79,15.54,15.54,0,0,0-3-2.35,15.94,15.94,0,0,0-3.58-1.57v-.45a1.13,1.13,0,0,0,.9-.33,1.4,1.4,0,0,0,.33-1v-9.63Zm7.73,3.13a3.14,3.14,0,0,0-.34-1.56,2.06,2.06,0,0,0-.78-.9,4.07,4.07,0,0,0-1-.45,6.65,6.65,0,0,1-.78-.22v9.52a17.41,17.41,0,0,1,2.8,2l.11-8.4Z"/><path class="cls-1" d="M190,104.76a44.32,44.32,0,0,0,5.26-4.37,33.39,33.39,0,0,1,2,3,5.29,5.29,0,0,1,.67,2.69c0,2.24-1.46,3.92-4.26,4.92v.12a4.07,4.07,0,0,1,3.48,1.34,6.87,6.87,0,0,1,1,4.15,6.45,6.45,0,0,1-.78,3.13,6.73,6.73,0,0,1-2.13,2.58,6,6,0,0,1-3.36,1,3.16,3.16,0,0,1-2.13-.79,3.93,3.93,0,0,1-1.23-2.12h-.11c-.11.44-.23,1.23-.45,2.46a19.24,19.24,0,0,1-.56,2.69h-.56a197.85,197.85,0,0,1-2.69-20.73h-1.68v-.56a1.5,1.5,0,0,0,1.12-.33,1.73,1.73,0,0,0,.45-.9,10.54,10.54,0,0,0,.11-2.13v-2a6,6,0,0,1,.45-2.46,3.33,3.33,0,0,1,1.12-1.57,3.15,3.15,0,0,1,1.79-.56,2.19,2.19,0,0,1,1.57.45,9.52,9.52,0,0,1,1.23,1.12c.45.45.79.67,1,.67.45,0,.56-.33.56-.89v-1h.67v1a5.32,5.32,0,0,1-.89,3.24,2.67,2.67,0,0,1-2,1.13,2.39,2.39,0,0,1-1.34-.34c-.45-.23-.9-.67-1.57-1.12a2.91,2.91,0,0,0-1.35-.79c-.33,0-.56.34-.67.9a3,3,0,0,0,.78,1.68,16,16,0,0,0,1.91,1.46,10.21,10.21,0,0,1,1.9,1.45A1.56,1.56,0,0,1,190,104.76Zm-.45,8.4a20.79,20.79,0,0,0-.67,5.83,5.14,5.14,0,0,0,.56,2.58,1.88,1.88,0,0,0,1.45.89,2.13,2.13,0,0,0,1.46-.56,2.8,2.8,0,0,0,.56-1.68c0-.45.11-1.34.11-2.8,0-3-.56-4.59-1.79-4.59A2.54,2.54,0,0,0,189.55,113.16Zm.45-7.73c0,1,0,2.24-.12,3.81s-.11,2.69-.22,3.36a7.52,7.52,0,0,0,2.35-1.45,3.11,3.11,0,0,0,1-1.57,9,9,0,0,0,.22-1.91,4.83,4.83,0,0,0-.44-2.24,1.32,1.32,0,0,0-1.24-.89A5.41,5.41,0,0,0,190,105.43Z"/></svg>